<svg width="1977" height="2524" viewBox="0 0 1977 2524" fill="none" xmlns="http://www.w3.org/2000/svg">
<path d="M1617.42 2415L1578.15 2435.26C1035.58 2715.07 731.899 2269.05 584.914 1984.04L570.841 1956.75L946.131 1763.21C998.968 1854.95 1119.63 2046.06 1336.36 1934.29L1345.09 1929.79C1556.01 1821.01 1519.54 1682.45 1461.68 1570.26C1400.7 1452.01 1323.57 1388.15 1141.41 1470.58L988.352 1538C599.208 1711.82 333.745 1464.88 153.923 1116.2L139.85 1088.91C-50.9179 719.005 -104.117 358.759 356.995 120.955L412.27 92.4484C912.656 -165.611 1177.61 166.036 1340.23 481.366L1352.74 505.622L983.269 696.166C927.522 605.924 829.519 483.737 636.056 583.51L622.965 590.261C438.229 685.533 437.937 777.806 495.793 889.99C550.522 996.111 625.979 1053.16 796.604 980.515L954.029 910.843C1372.48 729.584 1599.95 938.544 1798.53 1323.61L1817.3 1359.99C1997.12 1708.68 2127.99 2151.69 1617.42 2415Z" fill="black"/>
</svg>
