<svg width="4476" height="7614" viewBox="0 0 4476 7614" fill="none" xmlns="http://www.w3.org/2000/svg">
<path d="M3078.73 4336.98L3442.9 4149.18L2304.82 1942.41L4114.96 3802.58L4249.25 3733.32C4250.44 3758.1 4251.51 3782.93 4252.46 3807.83C4331.18 5869.62 3557.42 7573.01 2524.22 7612.46C1671.38 7645.02 908.354 6533.69 623.67 4985.16C1075.26 5776.49 1772.96 6540.76 2442.92 6195.25L2479.9 6176.17C2880.2 5969.73 2832.37 5439.07 2814.92 5293.09C2904.16 5402.04 3065.7 5635.15 3140.62 5764.4L3527.86 5564.69L2446.71 3468.29L1430.73 3992.25L1788.48 4685.95L2240.99 4452.58C2295.43 4579.48 2417.94 5019.98 2052.45 5208.47C1669.55 5405.93 1268.43 4921.86 1031.68 4462.8L1000.11 4401.59C755.468 3927.22 611.712 3381.45 996.783 3182.86C1386.21 2982.03 1630.81 3301.44 1696.01 3390.5L2237.73 3111.13L2229.83 3095.83C1945.42 2544.34 1385.92 1896.58 666.379 2172.92C795.018 1612.78 995.09 1134.27 1245.87 783.006L3078.73 4336.98ZM666.379 2172.92C544.206 2704.9 486.466 3310.52 510.907 3950.68C524.649 4310.61 563.462 4657.66 623.67 4985.16C584.005 4915.65 546.237 4845.94 510.555 4776.75L447.421 4654.33C23.9018 3833.12 -311.77 2669.55 473.602 2264.52L547.57 2226.37C587.634 2205.71 627.243 2187.95 666.379 2172.92ZM4476 3616.38L4249.25 3733.32C4238.05 3500.02 4216.31 3272.38 4185.06 3052.24L4476 3616.38ZM2746.56 262.935C3430.65 609.006 3991.12 1686.05 4185.06 3052.24L2746.56 262.935ZM2239.15 146.057C2268.37 144.941 2297.49 145.167 2326.48 146.709L2248.36 187.001L3366.38 2354.89L1595.05 523.927L1346.64 652.035C1604.65 341.584 1908.63 158.676 2239.15 146.057ZM1346.64 652.035C1312.22 693.456 1278.61 737.146 1245.87 783.006L1213.69 720.602L1346.64 652.035ZM2746.56 262.935C2610.77 194.241 2470.11 154.346 2326.48 146.709L2610.96 0L2746.56 262.935Z" fill="black"/>
</svg>
